# xmcd
#
# Track frame offsets:
#	150
#	12920
#	27225
#	47367
#	65027
#	74652
#	89030
#	105775
#	122360
#	137385
#	153087
#	166807
#	187175
#	202885
#	216800
#	231575
#
# Disc length: 3288
#
# Revision: 1
# Processed by: cddbd v1.5.1PL0 Copyright (c) Steve Scherf et al.
# Submitted via: ExactAudioCopy v0.90b4
# Normalized: r0:DSETVAR1
#
DISCID=d50cd610
DTITLE=Various Artist - Country Legends Volume 2 - CD 1 of 3
DYEAR=1994
DGENRE=Country
TTITLE0=Johnny Cash - I Walk The Line
TTITLE1=Mike Reid - Walk On Faith
TTITLE2=Rosanne Cash - Blue Moon With Heartache
TTITLE3=Willie Nelson - The Highway
TTITLE4=Bobbie Cryner - I Don't Care
TTITLE5=Vern Gosdin - Back When
TTITLE6=Les Taylor - Blue Kentucky Wind
TTITLE7=Shendandoah - Two Dozen Roses
TTITLE8=Mary-Chapin Carpenter - Passionate Kisses
TTITLE9=David Allan Coe - If This Is Just A Game
TTITLE10=Stacy Dean Campbell - Baby Don't You Know
TTITLE11=Joe Diffie - John Deere Green
TTITLE12=Larry Boone - Daddy's Honky Tonk Heart
TTITLE13=Rick Trevino - Doctor Time
TTITLE14=Rodney Crowell - I Couldn't Leave You If I Tried
TTITLE15=Doug Stone - I'd Be Better Off (In A Pine Box)
EXTD=
EXTT0=
EXTT1=
EXTT2=
EXTT3=
EXTT4=
EXTT5=
EXTT6=
EXTT7=
EXTT8=
EXTT9=
EXTT10=
EXTT11=
EXTT12=
EXTT13=
EXTT14=
EXTT15=
PLAYORDER=
